<svg xmlns="http://www.w3.org/2000/svg" viewBox="0 0 582 582">
  <path
    fill="#8033BC"
    d="M145.1,449c-12.9-62.9-8.5-114.9-8.5-114.9s51.9-9.1,129.3,5c31.1-103.8,122.9-172.3,122.9-172.3
			s29.1,25.5,64.8,70.6c39.2-22.3,80.3-35.2,112.1-42.5C525.7,81.7,417.8,0.5,291,0.5C130.3,0.5,0,130.8,0,291.5
			c0,71.4,25.7,136.7,68.4,187.4C89.2,469.5,115.1,459,145.1,449z"
  />
  <path
    fill="#92CB0D"
    d="M384.9,221.2c0,0-73.9,63.1-102.5,152.1c-63.1-6.8-107.7-1.7-107.7-1.7s-1.3,42.4,11.4,94.2
			c-41.3,14-73.6,29.1-93,39c51.9,48.2,121.5,77.8,198,77.8c160.7,0,291-130.3,291-291c0-18.7-1.8-36.9-5.1-54.6
			c-33,6.3-85.2,20.3-131.4,50.9C412.4,245.3,384.9,221.2,384.9,221.2z"
  />
</svg>
