<?xml version="1.0" encoding="utf-8"?>
<!-- Generator: Adobe Illustrator 25.2.0, SVG Export Plug-In . SVG Version: 6.00 Build 0)  -->
<svg version="1.1" id="Camada_1" xmlns="http://www.w3.org/2000/svg" xmlns:xlink="http://www.w3.org/1999/xlink" x="0px" y="0px"
	 viewBox="0 0 582 582" style="enable-background:new 0 0 582 582;" xml:space="preserve">
<style type="text/css">
	.st0{fill:#8033BC;}
	.st1{fill:#92CB0D;}
</style>
<g>
	
		<image style="overflow:visible;opacity:0.2;" width="614" height="527" xlink:href="74E7FAE5.png"  transform="matrix(1 0 0 1 -21 -21)">
	</image>
	<g>
		<path class="st0" d="M145.1,449c-12.9-62.9-8.5-114.9-8.5-114.9s51.9-9.1,129.3,5c31.1-103.8,122.9-172.3,122.9-172.3
			s29.1,25.5,64.8,70.6c39.2-22.3,80.3-35.2,112.1-42.5C525.7,81.7,417.8,0.5,291,0.5C130.3,0.5,0,130.8,0,291.5
			c0,71.4,25.7,136.7,68.4,187.4C89.2,469.5,115.1,459,145.1,449z"/>
	</g>
</g>
<g>
	
		<image style="overflow:visible;opacity:0.2;" width="537" height="410" xlink:href="74E7FAE7.png"  transform="matrix(1 0 0 1 72 200)">
	</image>
	<g>
		<path class="st1" d="M384.9,221.2c0,0-73.9,63.1-102.5,152.1c-63.1-6.8-107.7-1.7-107.7-1.7s-1.3,42.4,11.4,94.2
			c-41.3,14-73.6,29.1-93,39c51.9,48.2,121.5,77.8,198,77.8c160.7,0,291-130.3,291-291c0-18.7-1.8-36.9-5.1-54.6
			c-33,6.3-85.2,20.3-131.4,50.9C412.4,245.3,384.9,221.2,384.9,221.2z"/>
	</g>
</g>
</svg>
